<svg xmlns="http://www.w3.org/2000/svg" viewBox="-0.47 -0.47 363.94 77.05"><g id="svgGroup" stroke-linecap="round" fill-rule="evenodd" font-size="9pt" stroke="#000" stroke-width="0.25mm" fill="#000" style="stroke:#000;stroke-width:0.25mm;fill:#000"><path d="M 0 72.8 L 0 62.2 A 32.585 32.585 0 0 0 4.987 64.596 A 38.528 38.528 0 0 0 7.15 65.35 Q 11.1 66.6 15.2 66.6 Q 18.891 66.6 21.491 65.334 A 9.97 9.97 0 0 0 22.45 64.8 A 6.638 6.638 0 0 0 24.13 63.326 Q 25.273 61.885 25.299 59.896 A 7.117 7.117 0 0 0 25.3 59.8 A 5.58 5.58 0 0 0 23.653 55.754 A 6.765 6.765 0 0 0 23.6 55.7 Q 21.9 54 16.8 51.1 A 42.3 42.3 0 0 1 13.211 48.839 Q 11.503 47.631 10.176 46.385 A 20.225 20.225 0 0 1 8.7 44.85 A 11.278 11.278 0 0 1 6.216 39.674 A 16.141 16.141 0 0 1 5.9 36.4 A 18.377 18.377 0 0 1 6.615 31.137 A 13.833 13.833 0 0 1 11.2 24.25 A 17.941 17.941 0 0 1 17.703 20.921 Q 21.244 19.9 25.7 19.9 A 37.049 37.049 0 0 1 37.133 21.624 A 33.446 33.446 0 0 1 42.9 24.1 L 38.8 33.3 A 44.122 44.122 0 0 0 33.594 30.943 A 49.07 49.07 0 0 0 32.8 30.65 Q 29.6 29.5 25.9 29.5 A 10.64 10.64 0 0 0 23.375 29.786 A 8.044 8.044 0 0 0 20.65 31 A 5.145 5.145 0 0 0 19.219 32.462 Q 18.556 33.508 18.504 34.868 A 6.113 6.113 0 0 0 18.5 35.1 A 5.248 5.248 0 0 0 20.045 38.843 A 6.89 6.89 0 0 0 20.15 38.95 Q 21.412 40.212 24.399 41.913 A 62.422 62.422 0 0 0 26.4 43 A 42.918 42.918 0 0 1 30.91 45.89 A 31.797 31.797 0 0 1 34.7 49.15 Q 38 52.5 38 58 A 20.965 20.965 0 0 1 37.307 63.553 A 14.603 14.603 0 0 1 32 71.5 Q 26.761 75.517 18.321 76.026 A 41.838 41.838 0 0 1 15.8 76.1 A 54.996 54.996 0 0 1 11.657 75.952 Q 9.634 75.799 7.868 75.487 A 30.277 30.277 0 0 1 6.9 75.3 Q 3.1 74.5 0 72.8 Z" id="0" vector-effect="non-scaling-stroke"/><path d="M 93 23 L 89.2 32.8 Q 86.8 31.7 84.2 30.9 A 17.823 17.823 0 0 0 80.901 30.232 A 22.89 22.89 0 0 0 78.4 30.1 A 11.892 11.892 0 0 0 69.807 33.644 A 14.924 14.924 0 0 0 69.75 33.7 A 21.683 21.683 0 0 0 65.842 39.021 A 28.67 28.67 0 0 0 64.1 43.05 Q 62.1 48.8 62.1 55.3 A 16.341 16.341 0 0 0 62.371 58.377 Q 62.704 60.111 63.445 61.469 A 8.33 8.33 0 0 0 64.65 63.15 A 8.331 8.331 0 0 0 69.063 65.618 A 12.545 12.545 0 0 0 71.8 65.9 A 22.02 22.02 0 0 0 77.539 65.166 A 20.316 20.316 0 0 0 78.6 64.85 A 46.992 46.992 0 0 0 84.6 62.398 A 51.707 51.707 0 0 0 85 62.2 L 85 72.5 A 35.718 35.718 0 0 1 79.437 74.704 A 40.647 40.647 0 0 1 78.05 75.1 A 28.821 28.821 0 0 1 73.664 75.895 A 38.538 38.538 0 0 1 69.6 76.1 A 27.384 27.384 0 0 1 63.871 75.525 A 21.91 21.91 0 0 1 59.25 74 Q 54.7 71.9 52.1 67.45 A 17.631 17.631 0 0 1 50.234 62.718 Q 49.706 60.562 49.558 58.035 A 34.742 34.742 0 0 1 49.5 56 A 50.167 50.167 0 0 1 50.66 45.082 A 45.379 45.379 0 0 1 51.4 42.2 Q 53.3 35.7 57 30.65 Q 60.7 25.6 66 22.75 A 23.998 23.998 0 0 1 75.136 20.037 A 29.505 29.505 0 0 1 78 19.9 A 39.917 39.917 0 0 1 82.729 20.169 A 31.98 31.98 0 0 1 86.1 20.75 A 40.154 40.154 0 0 1 91.369 22.335 A 35.574 35.574 0 0 1 93 23 Z" id="1" vector-effect="non-scaling-stroke"/><path d="M 106.8 75.1 L 94.3 75.1 L 105.8 20.9 L 115.5 20.9 L 114.5 30.9 L 115 30.9 A 36.004 36.004 0 0 1 119.025 25.859 A 29.633 29.633 0 0 1 122.2 23 A 14.777 14.777 0 0 1 130.515 19.937 A 18.687 18.687 0 0 1 131.7 19.9 A 24.795 24.795 0 0 1 133.879 19.999 A 27.98 27.98 0 0 1 134.4 20.05 Q 135.8 20.2 136.8 20.5 L 134.1 32.3 A 14.294 14.294 0 0 0 133.061 32.033 Q 132.544 31.92 131.966 31.826 A 23.455 23.455 0 0 0 131.8 31.8 A 17.608 17.608 0 0 0 129.318 31.601 A 19.436 19.436 0 0 0 129.1 31.6 Q 122.9 31.6 118.3 36.95 A 26.367 26.367 0 0 0 113.86 44.379 A 36.161 36.161 0 0 0 112 50.7 L 106.8 75.1 Z" id="2" vector-effect="non-scaling-stroke"/><path d="M 148 75.1 L 135.5 75.1 L 147 20.9 L 159.5 20.9 L 148 75.1 Z M 153.573 13.069 A 9.312 9.312 0 0 0 155.7 13.3 A 9.994 9.994 0 0 0 157.75 13.101 A 6.752 6.752 0 0 0 161.35 11.15 A 7.155 7.155 0 0 0 163.118 7.872 A 10.239 10.239 0 0 0 163.4 5.4 A 8.802 8.802 0 0 0 163.391 5.001 Q 163.273 2.412 161.6 1.25 A 6.783 6.783 0 0 0 159.136 0.205 A 9.623 9.623 0 0 0 157.1 0 A 12.84 12.84 0 0 0 156.931 0.001 Q 155.67 0.018 154.605 0.283 A 6.707 6.707 0 0 0 151.35 2.1 A 6.962 6.962 0 0 0 149.565 5.406 A 10.219 10.219 0 0 0 149.3 7.8 A 8.775 8.775 0 0 0 149.303 8.046 Q 149.327 8.898 149.519 9.605 A 4.142 4.142 0 0 0 151.15 12 A 6.909 6.909 0 0 0 153.573 13.069 Z" id="3" vector-effect="non-scaling-stroke"/><path d="M 176.2 75.1 L 163.5 75.1 L 175.1 20.8 L 185 20.8 L 184 30.8 L 184.3 30.8 Q 187.3 26.4 191.55 23.1 A 15.661 15.661 0 0 1 199.745 19.902 A 20.268 20.268 0 0 1 201.8 19.8 Q 207.351 19.8 210.769 22.432 A 11.072 11.072 0 0 1 212.2 23.75 A 13.161 13.161 0 0 1 215.159 29.303 Q 215.7 31.316 215.784 33.703 A 25.36 25.36 0 0 1 215.8 34.6 A 30.869 30.869 0 0 1 215.705 36.961 A 39.787 39.787 0 0 1 215.5 38.95 Q 215.2 41.3 214.7 43.5 L 208 75.1 L 195.3 75.1 L 202.1 42.5 A 101.134 101.134 0 0 0 202.421 40.914 Q 202.609 39.944 202.75 39.1 A 18.951 18.951 0 0 0 202.952 37.476 A 14.97 14.97 0 0 0 203 36.3 Q 203 31.081 198.755 30.328 A 8.903 8.903 0 0 0 197.2 30.2 Q 192.941 30.2 189.171 34.279 A 22.771 22.771 0 0 0 187.7 36.05 A 29.388 29.388 0 0 0 184.488 41.554 Q 183.219 44.34 182.239 47.721 A 64.011 64.011 0 0 0 181.1 52.3 L 176.2 75.1 Z" id="4" vector-effect="non-scaling-stroke"/><path d="M 235.7 75.1 L 223.2 75.1 L 234.7 20.9 L 247.2 20.9 L 235.7 75.1 Z M 241.273 13.069 A 9.312 9.312 0 0 0 243.4 13.3 A 9.994 9.994 0 0 0 245.45 13.101 A 6.752 6.752 0 0 0 249.05 11.15 A 7.155 7.155 0 0 0 250.818 7.872 A 10.239 10.239 0 0 0 251.1 5.4 A 8.802 8.802 0 0 0 251.091 5.001 Q 250.973 2.412 249.3 1.25 A 6.783 6.783 0 0 0 246.836 0.205 A 9.623 9.623 0 0 0 244.8 0 A 12.84 12.84 0 0 0 244.631 0.001 Q 243.37 0.018 242.305 0.283 A 6.707 6.707 0 0 0 239.05 2.1 A 6.962 6.962 0 0 0 237.265 5.406 A 10.219 10.219 0 0 0 237 7.8 A 8.775 8.775 0 0 0 237.003 8.046 Q 237.027 8.898 237.219 9.605 A 4.142 4.142 0 0 0 238.85 12 A 6.909 6.909 0 0 0 241.273 13.069 Z" id="5" vector-effect="non-scaling-stroke"/><path d="M 255.8 51.6 L 262.3 20.9 L 274.8 20.9 L 267.9 53.5 Q 267.158 57.025 267.104 59.259 A 14.188 14.188 0 0 0 267.1 59.6 A 9.733 9.733 0 0 0 267.377 62.036 Q 268.379 65.9 273 65.9 A 9.327 9.327 0 0 0 278.087 64.332 Q 280.395 62.858 282.55 60 A 29.638 29.638 0 0 0 285.794 54.464 Q 287.098 51.614 288.096 48.152 A 63.605 63.605 0 0 0 289.2 43.7 L 294.1 20.9 L 306.5 20.9 L 295 75.1 L 285.3 75.1 L 286.3 65.1 L 285.8 65.1 Q 282.8 69.5 278.6 72.8 A 15.331 15.331 0 0 1 271.055 75.919 A 20.32 20.32 0 0 1 268.3 76.1 Q 261.7 76.1 258.15 72.2 A 12.858 12.858 0 0 1 255.329 67.007 Q 254.782 65.106 254.646 62.846 A 25.615 25.615 0 0 1 254.6 61.3 A 27.163 27.163 0 0 1 254.677 59.315 Q 254.753 58.277 254.905 57.13 A 44.977 44.977 0 0 1 254.95 56.8 Q 255.3 54.3 255.8 51.6 Z" id="6" vector-effect="non-scaling-stroke"/><path d="M 323.4 75.1 L 310.7 75.1 L 322.3 20.8 L 332.2 20.8 L 331.2 30.8 L 331.5 30.8 Q 334.5 26.4 338.75 23.1 A 15.661 15.661 0 0 1 346.945 19.902 A 20.268 20.268 0 0 1 349 19.8 Q 354.551 19.8 357.969 22.432 A 11.072 11.072 0 0 1 359.4 23.75 A 13.161 13.161 0 0 1 362.359 29.303 Q 362.9 31.316 362.984 33.703 A 25.36 25.36 0 0 1 363 34.6 A 30.869 30.869 0 0 1 362.905 36.961 A 39.787 39.787 0 0 1 362.7 38.95 Q 362.4 41.3 361.9 43.5 L 355.2 75.1 L 342.5 75.1 L 349.3 42.5 A 101.134 101.134 0 0 0 349.621 40.914 Q 349.809 39.944 349.95 39.1 A 18.951 18.951 0 0 0 350.152 37.476 A 14.97 14.97 0 0 0 350.2 36.3 Q 350.2 31.081 345.955 30.328 A 8.903 8.903 0 0 0 344.4 30.2 Q 340.141 30.2 336.371 34.279 A 22.771 22.771 0 0 0 334.9 36.05 A 29.388 29.388 0 0 0 331.688 41.554 Q 330.419 44.34 329.439 47.721 A 64.011 64.011 0 0 0 328.3 52.3 L 323.4 75.1 Z" id="7" vector-effect="non-scaling-stroke"/></g></svg>